<?xml version="1.0" encoding="UTF-8" ?>
<!DOCTYPE svg PUBLIC "-//W3C//DTD SVG 1.1//EN" "http://www.w3.org/Graphics/SVG/1.1/DTD/svg11.dtd">
<svg width="653pt" height="522pt" viewBox="0 0 653 522" version="1.1" xmlns="http://www.w3.org/2000/svg">
<g id="#32bba4ff">
<path fill="#32bba4" opacity="1.00" d=" M 191.29 11.39 C 208.14 9.20 225.38 20.13 230.82 36.17 C 234.48 46.45 233.37 58.31 227.71 67.66 C 222.07 77.18 212.08 84.03 201.11 85.63 C 190.44 87.35 179.13 84.09 171.01 76.96 C 159.85 67.54 155.15 51.27 159.65 37.36 C 163.94 23.52 176.87 12.90 191.29 11.39 Z" />
<path fill="#32bba4" opacity="1.00" d=" M 273.30 11.40 C 284.21 10.08 295.55 13.98 303.42 21.64 C 314.47 31.95 318.12 49.26 312.06 63.13 C 307.62 73.67 298.13 81.88 287.07 84.80 C 276.53 87.65 264.75 85.66 255.90 79.21 C 243.29 70.54 237.17 53.69 241.22 38.94 C 244.99 24.35 258.34 13.00 273.30 11.40 Z" />
<path fill="#32bba4" opacity="1.00" d=" M 336.22 113.77 C 355.59 120.12 374.60 127.55 393.89 134.18 C 395.88 135.01 398.42 135.44 399.53 137.52 C 400.25 139.26 400.00 141.21 400.08 143.05 C 399.95 180.03 399.96 217.01 399.69 253.99 C 399.68 262.04 399.26 270.14 400.42 278.14 C 402.91 297.60 412.16 316.13 426.30 329.75 C 439.68 342.76 457.36 351.27 475.88 353.60 C 497.51 356.35 520.26 351.50 538.39 339.24 C 552.95 329.48 564.27 315.04 570.36 298.61 C 574.16 288.51 575.99 277.72 576.09 266.95 C 576.21 247.39 576.19 227.83 576.11 208.27 C 595.63 214.68 614.80 222.13 634.23 228.82 C 637.09 229.53 639.75 231.77 639.23 235.02 C 638.76 253.70 640.18 272.51 637.41 291.07 C 630.60 337.42 600.05 379.12 558.62 400.68 C 519.22 421.37 470.56 423.42 429.48 406.34 C 396.04 392.66 368.07 366.36 352.16 333.94 C 345.88 321.28 341.28 307.78 338.60 293.91 C 336.55 283.08 336.12 272.03 336.23 261.04 C 335.94 216.37 336.00 171.69 336.00 127.01 C 335.99 122.60 335.94 118.18 336.22 113.77 Z" />
<path fill="#32bba4" opacity="1.00" d=" M 54.46 156.49 C 79.48 133.42 111.81 117.42 146.03 115.00 C 180.33 112.69 215.56 121.50 244.13 140.83 C 246.63 142.70 250.04 143.12 252.83 141.60 C 272.09 132.67 291.27 123.56 310.73 115.08 C 310.89 117.72 311.01 120.38 311.01 123.03 C 311.11 171.70 311.97 220.37 310.89 269.03 C 310.24 297.77 302.92 326.85 286.82 350.92 C 271.77 373.81 249.57 391.30 225.11 403.24 C 183.97 423.57 141.88 441.88 100.13 460.90 C 95.02 463.15 90.03 465.67 84.77 467.56 C 84.77 446.71 84.69 425.86 84.96 405.01 C 85.00 402.59 84.89 399.80 82.86 398.14 C 79.54 395.36 75.68 393.34 72.24 390.73 C 48.90 374.37 29.50 351.87 18.72 325.34 C 6.72 295.70 4.06 262.33 11.14 231.15 C 17.57 202.62 32.96 176.29 54.46 156.49 M 154.53 178.76 C 123.46 180.28 94.06 199.52 80.30 227.42 C 71.36 245.06 68.86 265.78 73.04 285.09 C 76.99 303.69 87.18 320.90 101.62 333.29 C 114.83 344.74 131.58 352.06 148.97 353.88 C 168.95 355.95 189.67 351.42 206.71 340.70 C 222.04 331.14 234.22 316.61 240.89 299.82 C 249.63 277.99 249.26 252.67 239.80 231.14 C 232.44 214.20 219.59 199.69 203.60 190.43 C 188.88 181.78 171.55 177.75 154.53 178.76 Z" />
<path fill="#32bba4" opacity="1.00" d=" M 479.56 435.76 C 488.77 433.73 498.73 435.29 506.80 440.20 C 517.18 446.40 524.25 457.86 524.93 469.96 C 526.09 484.24 517.97 498.60 505.32 505.24 C 493.82 511.62 478.94 511.26 467.82 504.21 C 455.65 496.77 448.50 482.05 450.27 467.88 C 451.88 452.37 464.36 438.92 479.56 435.76 Z" />
</g>
</svg>
