<?xml version="1.0" encoding="UTF-8" ?>
<!DOCTYPE svg PUBLIC "-//W3C//DTD SVG 1.1//EN" "http://www.w3.org/Graphics/SVG/1.1/DTD/svg11.dtd">
<svg width="1162pt" height="859pt" viewBox="0 0 1162 859" version="1.1" xmlns="http://www.w3.org/2000/svg">
<g id="#33bda3ff">
<path fill="#33bda3" opacity="1.00" d=" M 64.24 89.33 C 107.76 109.79 151.76 129.23 195.15 149.97 C 201.46 153.16 209.22 152.12 214.75 147.83 C 263.85 114.57 321.70 94.14 380.95 90.33 C 424.77 86.98 469.48 91.51 511.04 106.19 C 528.13 112.07 544.52 119.78 560.33 128.50 C 555.16 124.28 549.45 120.69 544.87 115.80 C 565.97 109.64 586.85 102.60 608.29 97.64 C 644.54 89.53 682.14 87.22 719.07 91.38 C 782.49 98.18 843.74 123.64 893.39 163.66 C 918.35 183.91 940.64 207.54 958.94 233.98 C 993.35 283.59 1014.25 342.55 1018.45 402.79 C 1019.49 430.51 1019.23 458.26 1019.49 486.00 C 1019.82 573.00 1019.59 660.00 1019.60 747.00 C 1019.65 752.60 1019.62 758.20 1019.22 763.79 C 1000.46 755.74 982.02 746.95 963.44 738.49 C 938.99 727.27 914.60 715.95 890.26 704.51 C 885.57 702.16 880.05 701.23 874.98 702.78 C 871.27 704.13 868.10 706.55 864.78 708.63 C 822.14 736.33 773.54 755.18 723.02 761.69 C 683.72 767.12 643.43 765.21 604.84 755.95 C 584.65 751.14 564.95 744.37 545.91 736.13 C 549.17 733.75 552.32 731.23 555.27 728.49 C 539.91 736.64 523.35 742.33 506.80 747.56 C 470.93 758.40 433.53 764.77 396.00 764.41 C 359.71 763.89 323.46 757.61 289.22 745.50 C 219.23 720.99 158.04 672.47 118.11 610.00 C 94.50 573.34 78.16 532.06 70.05 489.23 C 65.47 466.12 64.45 442.50 64.66 419.00 C 64.24 309.11 64.53 199.22 64.24 89.33 M 392.43 230.54 C 377.66 231.10 362.97 233.51 348.73 237.47 C 299.71 250.92 256.81 284.59 231.57 328.64 C 208.46 368.36 200.48 416.29 208.34 461.47 C 214.83 500.26 233.44 536.91 261.08 564.91 C 286.58 590.81 319.52 609.19 354.87 617.59 C 385.09 624.83 416.94 625.29 447.30 618.60 C 485.41 610.26 520.97 590.07 547.15 561.10 C 597.28 506.82 612.22 423.43 585.34 354.80 C 570.94 317.70 544.77 285.30 511.54 263.40 C 476.67 240.11 434.29 228.54 392.43 230.54 M 677.20 230.59 C 710.55 273.94 732.10 326.45 737.86 380.90 C 740.15 398.36 739.82 416.02 739.50 433.59 C 738.06 460.17 733.75 486.57 727.13 512.35 C 716.94 551.59 701.38 589.81 678.43 623.37 C 712.71 624.56 747.19 615.89 777.06 599.09 C 805.85 583.11 830.48 559.80 848.13 532.01 C 865.36 505.08 875.78 473.84 878.02 441.95 C 880.18 408.43 874.46 374.25 860.46 343.64 C 844.99 309.52 819.21 280.18 787.20 260.68 C 754.44 240.29 715.66 230.36 677.20 230.59 Z" />
</g>
</svg>
