<?xml version="1.0" encoding="UTF-8" ?>
<!DOCTYPE svg PUBLIC "-//W3C//DTD SVG 1.1//EN" "http://www.w3.org/Graphics/SVG/1.1/DTD/svg11.dtd">
<svg width="235pt" height="323pt" viewBox="0 0 235 323" version="1.1" xmlns="http://www.w3.org/2000/svg">
<g id="#ffffffff">
<path fill="#ffffff" opacity="1.00" d=" M 116.94 93.84 C 124.21 89.81 133.64 89.96 140.93 93.89 C 140.38 94.76 139.82 95.62 139.26 96.48 C 134.83 94.07 129.88 92.92 124.86 93.71 C 121.67 94.54 118.82 96.18 115.96 97.77 C 115.02 97.25 114.15 96.64 113.25 96.08 C 114.49 95.35 115.71 94.60 116.94 93.84 Z" />
<path fill="#ffffff" opacity="1.00" d=" M 83.46 100.96 C 86.86 97.73 91.14 94.79 96.06 95.08 C 100.38 95.26 105.05 94.52 108.93 96.88 C 108.79 97.60 108.50 99.06 108.35 99.79 C 106.19 99.19 104.04 98.55 101.94 97.79 C 99.85 97.68 97.76 97.63 95.67 97.55 C 95.65 98.08 95.63 99.15 95.61 99.68 C 95.02 99.21 94.44 98.72 93.88 98.23 C 90.89 98.53 88.87 100.76 86.76 102.61 C 85.49 102.57 84.55 101.48 83.46 100.96 Z" />
<path fill="#ffffff" opacity="1.00" d=" M 49.21 100.51 C 49.51 100.92 50.12 101.74 50.43 102.15 C 49.45 103.11 48.53 103.05 47.67 101.98 C 48.06 101.61 48.82 100.88 49.21 100.51 Z" />
<path fill="#ffffff" opacity="1.00" d=" M 122.56 121.33 C 124.92 121.03 127.29 120.74 129.65 120.44 C 129.89 123.09 130.11 125.74 130.24 128.40 C 127.71 128.90 125.20 129.43 122.68 129.92 C 122.68 127.06 122.67 124.19 122.56 121.33 Z" />
<path fill="#ffffff" opacity="1.00" d=" M 131.60 121.11 C 133.14 121.17 134.67 121.38 136.18 121.71 C 137.15 123.05 138.09 124.47 137.79 126.22 C 135.79 126.66 133.83 127.23 131.86 127.76 C 131.81 125.54 131.75 123.32 131.60 121.11 Z" />
<path fill="#ffffff" opacity="1.00" d=" M 110.98 123.02 C 114.12 122.34 117.38 122.39 120.50 121.58 C 121.10 124.50 121.08 127.50 120.62 130.45 C 116.61 130.70 112.60 130.85 108.58 130.90 C 108.59 128.37 108.59 125.86 108.54 123.34 C 109.15 123.26 110.37 123.10 110.98 123.02 Z" />
<path fill="#ffffff" opacity="1.00" d=" M 96.09 124.92 C 99.64 124.27 103.26 124.03 106.87 124.11 C 106.91 126.59 106.92 129.07 106.89 131.55 C 103.34 131.57 99.80 131.56 96.26 131.67 C 96.22 129.42 96.17 127.17 96.09 124.92 Z" />
<path fill="#ffffff" opacity="1.00" d=" M 90.21 131.51 C 91.00 129.62 91.85 127.74 93.18 126.16 C 95.96 127.11 94.94 129.41 94.25 131.56 C 93.24 131.55 91.22 131.52 90.21 131.51 Z" />
<path fill="#ffffff" opacity="1.00" d=" M 131.74 130.85 C 133.04 128.45 136.29 128.56 138.61 127.96 C 139.72 131.16 136.59 132.49 134.08 132.82 C 132.25 133.40 131.47 132.75 131.74 130.85 Z" />
<path fill="#ffffff" opacity="1.00" d=" M 123.07 131.68 C 125.43 131.32 127.81 131.10 130.20 130.91 C 130.25 131.82 130.37 133.62 130.42 134.52 C 128.00 134.79 125.56 134.89 123.12 134.96 C 123.11 134.14 123.08 132.50 123.07 131.68 Z" />
<path fill="#ffffff" opacity="1.00" d=" M 111.90 132.71 C 114.98 132.44 118.07 132.40 121.15 132.34 C 121.10 133.45 121.05 134.55 120.99 135.66 C 116.87 135.93 112.74 135.94 108.62 135.96 C 108.61 135.34 108.60 134.11 108.60 133.49 C 109.70 133.25 110.80 132.98 111.90 132.71 Z" />
<path fill="#ffffff" opacity="1.00" d=" M 90.36 133.20 C 91.75 133.26 93.14 133.32 94.53 133.38 C 94.57 134.28 94.65 136.07 94.69 136.97 C 93.26 136.77 91.83 136.57 90.41 136.37 C 90.39 135.31 90.37 134.26 90.36 133.20 Z" />
<path fill="#ffffff" opacity="1.00" d=" M 96.28 133.33 C 99.79 133.31 103.30 133.35 106.80 133.24 C 106.84 134.45 106.88 135.67 106.91 136.88 C 103.37 136.96 99.83 136.93 96.29 136.89 C 96.29 136.00 96.29 134.22 96.28 133.33 Z" />
<path fill="#ffffff" opacity="1.00" d=" M 132.17 136.08 C 134.21 134.69 136.62 133.96 138.94 133.17 C 138.01 136.58 135.59 139.10 132.24 140.15 C 132.16 138.79 132.14 137.43 132.17 136.08 Z" />
<path fill="#ffffff" opacity="1.00" d=" M 122.46 137.77 C 124.75 136.46 127.40 136.50 129.94 136.22 C 129.92 137.60 129.91 138.98 129.91 140.36 C 127.78 140.55 125.64 140.61 123.51 140.67 C 123.25 139.94 122.72 138.49 122.46 137.77 Z" />
<path fill="#ffffff" opacity="1.00" d=" M 90.36 138.27 C 91.54 138.55 92.72 138.83 93.90 139.11 C 93.89 140.34 93.89 141.57 93.88 142.80 C 92.83 141.91 91.79 141.00 90.75 140.10 C 90.65 139.64 90.46 138.73 90.36 138.27 Z" />
<path fill="#ffffff" opacity="1.00" d=" M 109.54 138.54 C 113.31 138.14 117.11 138.24 120.89 138.07 C 120.97 138.64 121.12 139.79 121.20 140.36 C 119.87 140.67 118.55 141.00 117.24 141.35 C 114.58 141.42 111.92 141.48 109.27 141.62 C 109.34 140.85 109.47 139.31 109.54 138.54 Z" />
<path fill="#ffffff" opacity="1.00" d=" M 96.31 139.19 C 99.96 139.02 103.61 139.00 107.26 139.14 C 107.02 140.20 106.78 141.27 106.54 142.34 C 103.12 142.25 99.71 142.52 96.30 142.82 C 96.31 141.60 96.31 140.39 96.31 139.19 Z" />
</g>
<g id="#030304ff">
<path fill="#030304" opacity="1.00" d=" M 102.22 39.15 C 103.80 36.67 106.43 34.89 109.38 36.32 C 111.47 38.44 111.59 43.01 108.35 44.09 C 108.94 45.59 109.55 47.09 110.15 48.59 C 110.18 48.66 110.24 48.79 110.26 48.86 L 110.89 50.51 C 110.91 50.55 110.95 50.64 110.96 50.68 C 111.50 53.80 114.31 55.22 116.76 56.69 C 122.00 56.85 127.11 57.95 132.00 59.85 C 135.32 63.26 139.63 66.32 140.39 71.39 C 140.40 71.44 140.42 71.53 140.43 71.57 C 140.78 73.48 140.97 75.41 141.23 77.32 C 144.71 77.84 146.76 80.89 149.40 82.88 C 149.70 83.44 150.31 84.57 150.61 85.13 C 154.62 82.38 157.89 78.58 162.12 76.18 C 165.68 76.29 168.28 79.79 169.20 82.97 C 171.46 82.91 173.80 82.66 175.53 81.04 C 176.56 81.55 177.57 82.10 178.58 82.65 C 178.27 84.74 178.00 86.91 178.87 88.91 C 178.58 90.37 178.27 91.83 178.00 93.29 C 179.36 91.39 180.65 89.44 182.05 87.56 C 183.73 87.87 185.41 88.19 187.09 88.49 C 187.94 89.35 188.79 90.19 189.66 91.02 C 189.68 92.55 189.80 94.10 189.57 95.62 C 188.06 98.12 185.33 99.86 184.63 102.83 C 183.21 107.24 182.12 111.82 179.59 115.77 C 178.09 119.32 178.24 123.34 177.24 127.05 C 175.96 128.00 176.02 128.57 177.44 128.74 C 174.01 140.72 172.55 153.26 168.27 165.00 C 168.65 167.34 169.12 169.67 169.43 172.02 C 168.45 174.09 167.48 176.15 166.45 178.19 C 163.36 178.53 160.37 179.78 157.21 179.36 C 157.51 182.90 156.77 186.39 156.55 189.91 C 155.51 197.16 155.52 204.51 154.63 211.79 C 153.92 218.15 153.54 224.55 152.69 230.89 C 152.02 230.86 150.69 230.78 150.03 230.74 C 153.09 244.05 155.13 257.57 156.73 271.13 C 160.54 272.29 164.42 273.26 168.11 274.80 C 170.70 276.27 173.44 277.43 176.08 278.80 C 178.06 281.46 181.44 283.42 181.56 287.08 C 178.21 289.12 175.53 292.39 171.60 293.33 C 166.32 294.73 161.27 297.09 155.74 297.32 C 146.35 299.21 136.74 298.80 127.24 298.44 C 122.48 297.09 117.58 295.99 113.13 293.79 C 111.72 293.22 110.32 292.63 108.88 292.19 C 104.25 294.24 100.22 298.10 94.89 298.12 C 86.59 299.37 78.24 298.06 70.13 296.23 C 66.39 295.73 62.65 295.18 59.03 294.06 C 55.99 292.19 53.55 289.49 50.49 287.63 C 52.80 284.91 54.58 281.59 57.68 279.66 C 60.32 277.99 62.78 276.06 65.43 274.41 C 69.37 272.75 73.80 272.47 77.67 270.63 C 81.00 263.64 82.86 256.03 85.12 248.65 C 86.30 242.76 89.63 237.04 88.30 230.89 C 86.64 220.66 85.20 210.41 83.53 200.19 L 83.23 200.69 C 83.08 196.31 82.11 192.00 81.51 187.66 C 79.01 187.24 76.48 187.08 73.97 186.73 C 73.00 185.17 71.91 183.68 70.83 182.20 C 70.41 180.77 69.97 179.36 69.53 177.94 C 67.32 175.00 64.52 172.62 61.74 170.25 C 58.27 167.73 55.97 164.05 53.15 160.90 C 50.88 157.85 48.03 155.24 46.16 151.90 C 44.14 149.47 42.84 146.49 40.70 144.17 C 37.01 141.71 32.38 140.60 29.69 136.79 C 29.99 136.50 30.58 135.92 30.88 135.63 C 27.74 134.97 24.67 134.07 21.61 133.11 C 21.61 129.57 21.47 124.63 24.82 122.59 C 26.01 122.90 27.20 122.98 28.41 122.85 L 29.36 122.81 L 29.88 122.82 C 29.86 123.10 29.81 123.65 29.78 123.93 C 30.50 124.16 31.93 124.60 32.64 124.83 C 33.02 123.22 31.01 122.91 29.88 122.82 C 29.78 120.74 29.57 118.68 29.40 116.61 C 32.64 115.83 36.08 111.55 39.25 114.72 C 41.51 115.82 40.75 119.45 43.17 120.25 C 44.14 116.12 43.70 111.65 45.57 107.77 C 46.66 107.46 47.76 107.14 48.85 106.82 C 51.01 107.63 53.32 107.55 55.59 107.53 C 58.30 111.84 54.82 116.36 53.98 120.70 C 54.38 120.74 55.19 120.82 55.59 120.87 C 56.44 124.27 56.71 127.77 56.64 131.27 C 57.52 136.22 61.36 139.83 64.57 143.42 C 69.71 148.19 73.97 153.98 79.76 158.01 C 81.75 154.91 84.21 152.16 86.48 149.25 C 85.68 139.57 85.09 129.87 84.61 120.17 C 79.35 118.75 74.94 114.78 72.85 109.77 C 69.45 111.74 66.23 114.01 62.98 116.22 C 62.43 116.02 61.35 115.62 60.81 115.42 C 56.88 112.48 56.51 107.43 54.81 103.19 C 52.50 103.39 50.28 104.01 48.07 104.67 C 47.19 103.76 46.29 102.87 45.39 102.00 C 46.17 100.90 46.64 99.47 47.80 98.70 C 50.00 99.07 52.40 100.14 54.57 99.03 C 55.80 95.22 56.43 91.01 58.55 87.48 C 58.88 87.39 59.52 87.20 59.84 87.10 C 64.38 88.49 68.67 90.59 73.04 92.42 C 75.28 89.18 77.71 86.02 81.35 84.27 C 83.32 78.76 82.99 71.90 87.76 67.76 C 91.45 63.69 95.90 60.10 101.13 58.25 C 103.09 56.15 105.25 54.07 104.94 50.92 C 105.33 48.61 105.52 46.27 105.69 43.93 C 103.18 43.58 102.40 41.36 102.22 39.15 M 104.76 42.30 C 106.41 42.17 108.06 41.94 109.70 41.69 C 109.31 40.18 110.15 37.16 107.63 37.49 C 104.55 36.53 103.74 40.05 104.76 42.30 M 107.41 46.84 C 106.94 49.50 106.54 52.17 106.18 54.84 C 107.62 54.43 109.05 54.00 110.48 53.57 C 109.40 51.35 108.44 49.08 107.41 46.84 M 103.44 57.91 C 106.85 57.71 110.40 57.70 113.57 56.23 C 110.20 55.36 106.21 55.65 103.44 57.91 M 98.92 60.83 C 94.47 63.19 90.82 66.80 87.45 70.48 C 85.23 73.82 84.76 78.00 83.99 81.86 C 94.81 81.05 105.42 78.63 116.21 77.49 C 121.81 77.01 127.27 75.21 132.92 75.42 C 135.56 75.48 138.01 77.03 140.68 76.72 C 140.32 76.10 139.78 75.62 139.05 75.29 C 138.38 68.35 133.57 62.15 126.85 60.12 C 121.43 58.23 115.67 58.63 110.03 58.62 C 106.27 58.94 102.44 59.42 98.92 60.83 M 120.88 78.39 C 110.22 79.77 99.60 81.34 88.96 82.87 C 83.71 83.50 79.14 86.97 76.04 91.12 C 70.05 99.42 72.88 112.37 81.73 117.45 C 88.06 118.66 94.45 116.93 100.76 116.35 C 113.82 114.33 126.94 112.80 140.04 111.10 C 143.42 111.11 145.81 108.37 148.05 106.20 C 152.10 100.01 150.89 91.94 148.72 85.29 C 145.53 80.33 139.51 79.07 134.44 76.90 C 129.87 76.80 125.39 77.81 120.88 78.39 M 162.93 78.12 C 162.48 80.33 162.31 82.58 162.41 84.82 C 164.18 84.36 165.94 83.82 167.66 83.20 C 166.41 81.23 164.93 79.38 162.93 78.12 M 151.07 86.92 C 151.97 90.86 151.87 94.91 151.84 98.93 C 154.88 99.89 157.89 101.12 161.13 101.16 C 159.56 98.42 156.94 96.49 155.28 93.83 C 155.23 92.35 155.38 90.87 155.47 89.39 C 156.85 87.85 158.66 86.99 160.72 86.82 C 160.74 84.04 161.04 81.28 161.13 78.50 C 157.52 80.96 154.34 84.02 151.07 86.92 M 163.09 86.76 C 163.61 87.07 164.63 87.68 165.14 87.98 C 167.48 87.17 169.78 86.26 171.99 85.16 C 172.55 84.87 173.66 84.28 174.22 83.98 C 173.01 83.85 170.59 83.57 169.38 83.44 L 169.79 84.52 C 167.36 84.51 165.21 85.71 163.09 86.76 M 171.99 85.16 C 169.50 88.44 169.17 92.59 170.50 96.44 C 172.30 96.23 174.17 96.25 175.90 95.64 C 176.80 92.68 176.62 89.54 176.38 86.50 C 175.00 86.53 173.62 86.58 172.24 86.66 L 171.99 85.16 M 165.13 89.76 C 166.10 91.51 167.11 93.24 168.21 94.91 C 168.22 92.73 168.17 90.55 168.11 88.37 C 167.11 88.84 166.12 89.30 165.13 89.76 M 156.54 92.09 C 157.72 95.02 160.35 97.03 162.09 99.61 C 163.83 99.40 165.47 98.77 167.07 98.09 C 165.98 94.51 164.02 91.29 162.26 88.02 C 160.00 88.49 156.51 89.12 156.54 92.09 M 61.00 89.24 C 62.02 93.48 63.93 97.57 63.93 102.00 C 63.92 105.90 63.31 109.81 63.82 113.71 C 66.35 112.00 68.90 110.33 71.54 108.79 C 71.38 103.81 70.98 98.71 72.76 93.94 C 68.81 92.46 64.95 90.73 61.00 89.24 M 181.86 90.26 C 180.60 92.87 178.99 95.29 177.80 97.94 C 177.62 100.67 181.00 100.69 182.84 101.45 C 184.65 98.99 187.09 96.87 188.15 93.94 C 187.87 90.68 184.68 89.55 181.86 90.26 M 59.22 90.08 C 58.12 92.79 57.24 95.57 56.52 98.40 C 58.35 98.27 60.13 97.83 61.90 97.33 C 61.15 94.86 60.25 92.44 59.22 90.08 M 163.54 102.09 C 168.67 103.18 173.97 102.81 179.17 102.51 C 177.49 101.40 175.13 100.54 175.54 98.06 C 173.37 98.06 171.19 97.89 169.04 98.17 C 167.04 99.21 165.32 100.72 163.54 102.09 M 51.62 101.99 C 55.42 101.91 60.28 103.00 63.08 99.74 C 59.14 98.87 55.17 100.39 51.62 101.99 M 49.21 100.51 C 48.82 100.88 48.06 101.61 47.67 101.98 C 48.53 103.05 49.45 103.11 50.43 102.15 C 50.12 101.74 49.51 100.92 49.21 100.51 M 152.04 100.91 C 151.56 102.45 151.07 103.99 150.42 105.47 C 149.23 108.83 145.49 110.04 143.23 112.53 C 143.28 122.59 143.97 132.62 144.44 142.66 C 146.79 145.27 149.95 147.26 153.06 148.92 C 155.71 137.91 158.27 126.88 160.63 115.81 C 161.50 111.35 159.08 107.23 158.43 102.91 C 156.32 102.16 154.23 101.37 152.04 100.91 M 160.37 102.49 C 160.62 106.26 161.51 110.11 163.45 113.36 C 166.64 115.20 170.49 115.21 174.07 115.24 C 175.66 115.10 177.71 115.27 178.64 113.64 C 180.70 110.78 181.48 107.21 182.09 103.80 C 179.43 104.37 176.72 104.35 174.02 104.23 C 169.40 104.46 164.59 104.75 160.37 102.49 M 56.75 103.35 C 58.46 106.62 58.26 111.68 62.24 113.18 C 62.34 109.80 62.46 106.41 62.59 103.02 C 60.62 102.75 58.68 102.86 56.75 103.35 M 46.57 109.42 C 45.97 113.49 45.12 117.56 45.20 121.70 C 47.25 121.67 49.34 121.88 51.35 121.40 C 53.64 118.22 54.01 114.08 55.26 110.45 C 53.38 111.12 51.77 110.36 50.80 108.75 C 49.39 108.97 47.98 109.20 46.57 109.42 M 53.25 109.51 C 53.53 109.76 53.53 109.76 53.25 109.51 M 136.02 112.81 C 123.08 114.97 109.96 115.89 97.03 118.14 C 93.39 118.41 89.77 118.88 86.15 119.36 C 87.14 128.98 86.87 138.64 88.05 148.22 C 95.93 148.17 103.68 146.30 111.57 146.36 C 121.80 144.84 132.14 144.26 142.40 143.07 C 142.70 138.02 142.47 132.96 141.82 127.94 C 141.62 122.79 141.68 117.62 141.37 112.47 C 139.58 112.56 137.80 112.66 136.02 112.81 M 161.77 114.48 C 162.32 118.16 160.77 121.69 159.96 125.23 C 160.10 125.71 160.38 126.67 160.52 127.15 C 162.01 128.24 163.44 129.42 165.05 130.32 C 168.81 131.22 172.78 130.98 176.54 130.16 C 174.65 125.77 177.07 121.02 177.58 116.55 C 172.23 116.84 166.71 116.86 161.77 114.48 M 31.13 117.73 C 30.47 120.98 33.53 122.68 35.74 124.33 C 37.45 125.88 39.56 124.34 41.33 123.79 C 40.38 120.87 39.77 117.42 37.13 115.50 C 34.91 115.31 33.11 117.01 31.13 117.73 M 44.04 123.45 C 42.58 124.55 40.99 125.47 39.56 126.61 C 38.89 129.03 38.12 131.43 36.31 133.29 C 40.89 132.00 44.19 128.38 48.22 126.04 C 49.06 125.16 51.01 124.56 50.79 123.15 C 48.54 123.17 46.29 123.35 44.04 123.45 M 25.14 124.17 C 23.64 126.30 23.54 129.00 23.15 131.48 C 26.62 132.81 30.29 133.50 34.00 133.59 C 35.21 132.06 36.45 130.51 37.22 128.69 C 33.17 127.25 29.29 125.30 25.14 124.17 M 39.08 134.13 C 36.90 135.38 34.38 135.90 32.07 136.85 C 35.08 139.15 38.43 141.01 41.95 142.39 C 46.63 141.63 50.58 138.73 54.54 136.30 C 55.25 132.05 54.93 127.72 54.56 123.45 C 49.37 126.97 44.12 130.40 39.08 134.13 M 159.04 128.20 C 158.79 132.19 157.24 136.01 157.29 140.02 C 160.75 144.48 166.70 145.14 171.94 145.21 C 172.84 140.88 174.29 136.69 174.93 132.30 C 171.93 132.29 168.87 132.73 165.91 132.10 C 163.42 131.21 161.35 129.46 159.04 128.20 M 52.40 139.35 C 49.61 141.39 46.09 142.05 43.22 143.95 C 44.68 148.28 48.32 151.47 50.87 155.19 C 54.44 154.51 58.38 153.70 60.87 150.81 C 62.15 148.78 62.35 146.30 62.88 144.00 C 60.50 141.68 58.59 138.97 56.62 136.31 C 55.05 137.05 53.87 138.42 52.40 139.35 M 153.50 153.06 C 157.54 157.35 163.51 157.61 169.02 157.37 C 170.11 153.74 171.07 150.07 171.81 146.35 C 166.41 146.79 160.17 146.18 156.88 141.26 C 155.35 145.07 154.19 149.02 153.50 153.06 M 128.72 146.11 C 115.23 147.66 101.69 148.63 88.17 149.82 C 85.79 152.69 83.34 155.48 80.99 158.37 C 102.86 155.31 124.91 152.63 147.03 153.09 C 149.08 153.05 151.59 153.27 152.71 151.14 C 149.41 149.20 146.30 146.95 143.25 144.64 C 138.36 144.60 133.52 145.24 128.72 146.11 M 64.14 145.36 C 63.40 147.70 63.38 150.65 61.24 152.25 C 58.53 154.44 55.36 156.10 51.93 156.79 C 54.00 159.36 56.14 161.88 58.29 164.39 C 62.46 163.67 66.89 163.02 70.37 160.41 C 72.30 158.97 72.35 156.35 72.76 154.19 C 69.73 151.39 67.05 148.26 64.14 145.36 M 109.85 156.36 C 101.28 156.92 92.70 157.78 84.30 159.67 C 86.94 161.63 91.15 162.62 91.51 166.48 C 92.26 171.38 92.93 176.87 90.37 181.38 C 88.17 183.55 85.90 185.69 83.13 187.15 C 86.07 202.61 87.49 218.32 90.63 233.74 C 96.81 232.90 103.01 232.32 109.21 231.72 C 123.37 231.17 137.47 229.03 151.65 229.17 C 152.03 212.36 155.38 195.67 154.84 178.83 C 152.25 177.71 149.94 176.07 147.81 174.24 C 147.01 172.69 146.10 171.21 145.41 169.61 C 145.16 165.87 145.68 162.09 146.81 158.52 C 148.29 157.26 149.78 156.01 151.24 154.73 C 137.41 154.02 123.61 155.31 109.85 156.36 M 152.12 154.41 C 151.82 158.02 150.25 162.20 152.90 165.34 C 154.82 168.69 158.46 170.27 162.11 170.89 C 166.82 168.53 167.36 162.98 168.76 158.51 C 165.37 158.89 161.85 159.33 158.53 158.33 C 156.17 157.43 154.23 155.75 152.12 154.41 M 74.16 155.42 C 72.95 162.28 65.60 165.15 59.44 165.70 C 61.65 168.09 64.16 170.17 66.74 172.15 C 69.26 171.10 72.01 170.70 74.49 169.57 C 77.90 167.73 78.76 163.51 78.45 159.96 C 77.32 158.19 75.64 156.87 74.16 155.42 M 147.39 169.24 C 148.67 173.94 153.29 176.70 157.88 177.33 C 161.62 177.98 166.11 176.97 167.39 172.95 C 167.38 171.98 167.36 170.04 167.35 169.07 C 165.82 169.98 164.37 171.05 162.75 171.79 C 154.82 173.77 146.68 163.69 150.84 156.54 C 147.00 159.60 146.93 164.76 147.39 169.24 M 83.69 161.06 C 87.10 165.01 87.08 170.80 85.50 175.52 C 83.28 180.82 76.47 180.45 71.78 179.43 C 72.96 181.48 73.80 184.03 75.97 185.25 C 79.47 185.44 83.64 186.20 86.33 183.35 C 91.35 179.35 91.29 171.98 89.65 166.38 C 88.87 162.75 83.38 162.77 84.11 158.67 C 84.00 159.27 83.80 160.46 83.69 161.06 M 79.91 160.83 C 79.61 163.48 79.61 166.43 77.74 168.56 C 75.11 171.84 70.59 171.88 67.13 173.79 C 69.82 174.72 71.72 176.87 73.98 178.47 C 77.75 179.20 81.96 178.59 84.43 175.38 C 84.90 171.96 85.34 168.54 85.25 165.08 C 83.48 163.66 81.70 162.23 79.91 160.83 M 127.53 231.74 C 127.87 233.72 128.31 235.68 128.78 237.63 L 127.52 237.59 C 128.71 238.31 129.19 239.42 128.97 240.91 C 135.71 239.14 142.91 235.23 149.86 238.61 C 149.22 235.96 148.65 233.31 148.14 230.64 C 141.24 230.61 134.41 231.61 127.53 231.74 M 110.85 233.80 C 110.81 233.91 110.74 234.13 110.71 234.24 C 110.63 234.96 110.47 236.39 110.40 237.11 L 109.52 237.28 L 109.10 238.26 L 109.57 239.03 L 109.65 239.82 L 108.78 240.08 L 108.45 241.11 L 109.02 241.84 C 107.48 247.46 106.31 253.18 104.79 258.81 C 103.86 264.27 101.43 269.39 101.03 274.96 C 105.85 277.03 110.02 280.25 113.71 283.94 C 117.85 277.86 124.75 274.34 131.55 272.02 L 132.17 272.04 C 133.15 270.69 132.95 269.81 131.57 269.40 C 131.86 261.87 130.35 254.33 129.07 246.92 C 128.14 242.06 126.97 237.24 125.89 232.41 C 120.88 232.60 115.70 232.68 110.85 233.80 M 90.36 235.35 C 89.95 237.02 89.55 238.69 89.17 240.37 C 95.09 239.91 102.15 238.74 106.77 243.46 C 107.82 240.14 108.63 236.75 109.50 233.38 C 103.08 233.56 96.72 234.58 90.36 235.35 M 130.34 242.61 C 130.28 243.18 130.16 244.34 130.10 244.92 C 130.98 248.42 131.47 252.02 132.68 255.44 C 135.57 253.64 138.57 251.74 142.02 251.27 C 145.48 250.55 148.97 251.53 152.42 251.81 C 151.70 248.04 151.30 244.20 150.38 240.46 C 143.86 237.25 136.42 239.48 130.34 242.61 M 89.15 241.77 C 86.95 244.51 87.02 248.43 85.40 251.54 C 88.05 251.59 90.73 251.38 93.38 251.72 C 97.16 252.48 100.44 254.66 104.08 255.85 C 104.92 252.18 105.82 248.53 106.52 244.84 C 104.74 243.71 103.06 242.33 101.04 241.63 C 97.10 241.24 93.08 241.24 89.15 241.77 M 84.86 255.07 C 83.65 258.47 82.72 261.96 81.57 265.39 C 85.07 265.32 88.58 265.04 92.09 265.10 C 95.34 265.12 98.15 266.93 100.98 268.27 C 101.96 264.78 102.75 261.24 103.63 257.73 C 99.17 255.17 94.28 252.43 88.95 253.05 C 87.40 253.20 85.32 253.15 84.86 255.07 M 132.43 256.90 C 132.65 260.55 132.91 264.20 132.94 267.86 C 139.94 266.44 146.82 262.28 154.15 264.39 C 153.73 260.75 153.25 257.12 152.38 253.56 C 149.58 253.07 146.80 252.26 143.94 252.32 C 139.78 252.85 136.04 254.90 132.43 256.90 M 81.06 266.40 C 80.07 269.61 79.15 272.84 78.33 276.10 C 83.51 280.70 91.03 279.61 97.41 279.33 C 98.11 275.85 99.34 272.52 100.45 269.17 C 94.59 265.59 87.65 266.08 81.06 266.40 M 143.87 265.74 C 143.72 266.23 143.42 267.20 143.26 267.69 L 143.48 265.96 C 140.30 267.31 137.08 268.59 133.76 269.57 C 133.58 273.08 133.75 276.60 133.96 280.11 C 141.04 280.77 149.95 282.24 155.11 276.05 C 154.97 272.60 155.04 269.16 155.22 265.72 C 151.44 265.47 147.64 265.41 143.87 265.74 M 63.33 277.35 C 59.46 280.13 55.58 283.08 52.92 287.11 C 55.20 288.83 57.38 290.76 59.93 292.09 C 65.47 294.18 71.46 294.57 77.22 295.79 C 86.35 297.54 96.60 297.77 104.75 292.68 C 107.86 291.06 110.73 288.89 112.58 285.85 C 109.40 281.96 105.27 279.04 100.87 276.69 C 100.29 276.95 99.14 277.47 98.57 277.72 C 98.49 278.32 98.34 279.50 98.27 280.10 C 91.33 281.97 83.44 281.59 77.30 277.60 C 77.22 276.04 77.14 274.48 77.05 272.93 C 72.43 274.21 67.46 274.76 63.33 277.35 M 156.53 273.37 C 156.78 274.03 157.27 275.36 157.52 276.02 C 154.94 278.27 152.33 280.99 148.77 281.48 C 143.43 282.78 137.94 281.59 132.58 281.11 C 132.54 278.71 132.48 276.32 132.37 273.93 C 126.50 274.87 121.63 278.36 117.15 282.03 C 114.61 284.64 112.88 287.87 110.99 290.95 C 116.65 293.17 122.29 295.58 128.28 296.76 C 139.35 297.56 150.44 296.72 161.33 294.65 C 167.97 292.87 174.83 290.91 180.00 286.12 C 178.15 283.95 176.46 281.52 173.97 280.01 C 168.54 276.93 162.73 274.38 156.53 273.37 Z" />
<path fill="#030304" opacity="1.00" d=" M 122.38 81.37 C 127.49 81.00 132.68 80.79 137.79 81.35 C 141.35 82.71 145.51 84.33 146.65 88.39 C 149.56 93.41 148.01 99.53 145.31 104.27 C 143.14 107.65 138.96 108.49 135.23 108.60 C 119.51 110.87 103.75 112.81 88.01 114.96 C 84.46 115.44 81.09 113.62 78.75 111.07 C 75.18 107.16 75.22 101.39 75.78 96.45 C 76.52 92.49 80.13 90.19 83.25 88.16 C 89.03 85.10 95.74 85.09 102.07 84.15 C 108.82 83.08 115.64 82.53 122.38 81.37 M 116.94 93.84 C 115.71 94.60 114.49 95.35 113.25 96.08 C 114.15 96.64 115.02 97.25 115.96 97.77 C 118.82 96.18 121.67 94.54 124.86 93.71 C 129.88 92.92 134.83 94.07 139.26 96.48 C 139.82 95.62 140.38 94.76 140.93 93.89 C 133.64 89.96 124.21 89.81 116.94 93.84 M 83.46 100.96 C 84.55 101.48 85.49 102.57 86.76 102.61 C 88.87 100.76 90.89 98.53 93.88 98.23 C 94.44 98.72 95.02 99.21 95.61 99.68 C 95.63 99.15 95.65 98.08 95.67 97.55 C 97.76 97.63 99.85 97.68 101.94 97.79 C 104.04 98.55 106.19 99.19 108.35 99.79 C 108.50 99.06 108.79 97.60 108.93 96.88 C 105.05 94.52 100.38 95.26 96.06 95.08 C 91.14 94.79 86.86 97.73 83.46 100.96 Z" />
<path fill="#030304" opacity="1.00" d=" M 109.18 121.49 C 116.71 120.64 124.20 118.88 131.82 119.22 C 135.05 119.53 139.12 120.58 139.95 124.23 C 140.57 129.15 140.53 134.37 138.17 138.87 C 136.89 139.68 135.63 140.50 134.37 141.34 C 121.23 142.14 108.14 143.73 94.98 144.49 C 92.14 144.67 90.19 142.32 88.79 140.17 C 88.05 135.28 88.52 130.38 90.74 125.92 C 96.25 122.35 102.90 122.31 109.18 121.49 M 122.56 121.33 C 122.67 124.19 122.68 127.06 122.68 129.92 C 125.20 129.43 127.71 128.90 130.24 128.40 C 130.11 125.74 129.89 123.09 129.65 120.44 C 127.29 120.74 124.92 121.03 122.56 121.33 M 131.60 121.11 C 131.75 123.32 131.81 125.54 131.86 127.76 C 133.83 127.23 135.79 126.66 137.79 126.22 C 138.09 124.47 137.15 123.05 136.18 121.71 C 134.67 121.38 133.14 121.17 131.60 121.11 M 110.98 123.02 C 110.37 123.10 109.15 123.26 108.54 123.34 C 108.59 125.86 108.59 128.37 108.58 130.90 C 112.60 130.85 116.61 130.70 120.62 130.45 C 121.08 127.50 121.10 124.50 120.50 121.58 C 117.38 122.39 114.12 122.34 110.98 123.02 M 96.09 124.92 C 96.17 127.17 96.22 129.42 96.26 131.67 C 99.80 131.56 103.34 131.57 106.89 131.55 C 106.92 129.07 106.91 126.59 106.87 124.11 C 103.26 124.03 99.64 124.27 96.09 124.92 M 90.21 131.51 C 91.22 131.52 93.24 131.55 94.25 131.56 C 94.94 129.41 95.96 127.11 93.18 126.16 C 91.85 127.74 91.00 129.62 90.21 131.51 M 131.74 130.85 C 131.47 132.75 132.25 133.40 134.08 132.82 C 136.59 132.49 139.72 131.16 138.61 127.96 C 136.29 128.56 133.04 128.45 131.74 130.85 M 123.07 131.68 C 123.08 132.50 123.11 134.14 123.12 134.96 C 125.56 134.89 128.00 134.79 130.42 134.52 C 130.37 133.62 130.25 131.82 130.20 130.91 C 127.81 131.10 125.43 131.32 123.07 131.68 M 111.90 132.71 C 110.80 132.98 109.70 133.25 108.60 133.49 C 108.60 134.11 108.61 135.34 108.62 135.96 C 112.74 135.94 116.87 135.93 120.99 135.66 C 121.05 134.55 121.10 133.45 121.15 132.34 C 118.07 132.40 114.98 132.44 111.90 132.71 M 90.36 133.20 C 90.37 134.26 90.39 135.31 90.41 136.37 C 91.83 136.57 93.26 136.77 94.69 136.97 C 94.65 136.07 94.57 134.28 94.53 133.38 C 93.14 133.32 91.75 133.26 90.36 133.20 M 96.28 133.33 C 96.29 134.22 96.29 136.00 96.29 136.89 C 99.83 136.93 103.37 136.96 106.91 136.88 C 106.88 135.67 106.84 134.45 106.80 133.24 C 103.30 133.35 99.79 133.31 96.28 133.33 M 132.17 136.08 C 132.14 137.43 132.16 138.79 132.24 140.15 C 135.59 139.10 138.01 136.58 138.94 133.17 C 136.62 133.96 134.21 134.69 132.17 136.08 M 122.46 137.77 C 122.72 138.49 123.25 139.94 123.51 140.67 C 125.64 140.61 127.78 140.55 129.91 140.36 C 129.91 138.98 129.92 137.60 129.94 136.22 C 127.40 136.50 124.75 136.46 122.46 137.77 M 90.36 138.27 C 90.46 138.73 90.65 139.64 90.75 140.10 C 91.79 141.00 92.83 141.91 93.88 142.80 C 93.89 141.57 93.89 140.34 93.90 139.11 C 92.72 138.83 91.54 138.55 90.36 138.27 M 109.54 138.54 C 109.47 139.31 109.34 140.85 109.27 141.62 C 111.92 141.48 114.58 141.42 117.24 141.35 C 118.55 141.00 119.87 140.67 121.20 140.36 C 121.12 139.79 120.97 138.64 120.89 138.07 C 117.11 138.24 113.31 138.14 109.54 138.54 M 96.31 139.19 C 96.31 140.39 96.31 141.60 96.30 142.82 C 99.71 142.52 103.12 142.25 106.54 142.34 C 106.78 141.27 107.02 140.20 107.26 139.14 C 103.61 139.00 99.96 139.02 96.31 139.19 Z" />
<path fill="#030304" opacity="1.00" d=" M 92.65 169.79 C 104.97 165.70 118.24 166.50 130.97 164.73 C 135.41 164.59 139.86 164.59 144.29 164.84 C 144.39 173.61 143.26 182.32 143.35 191.08 C 143.44 195.25 142.48 199.35 142.66 203.52 L 142.60 203.40 C 142.68 207.26 141.44 211.03 141.92 214.89 C 142.18 216.34 142.37 217.79 142.55 219.25 C 127.78 220.54 113.09 222.78 98.29 223.68 C 97.71 213.05 95.81 202.57 95.14 191.95 C 94.32 184.57 93.58 177.17 92.65 169.79 M 115.90 167.79 C 108.64 168.17 101.41 169.06 94.29 170.56 C 96.21 187.59 98.15 204.63 99.66 221.69 C 102.25 221.79 104.85 221.75 107.43 221.43 C 118.50 220.14 129.60 219.08 140.64 217.61 C 141.14 212.10 140.64 206.57 141.24 201.07 C 142.10 193.79 141.14 186.41 142.21 179.14 C 142.47 174.89 142.58 170.64 142.55 166.38 C 133.62 165.74 124.76 166.91 115.90 167.79 Z" />
<path fill="#030304" opacity="1.00" d=" M 129.63 184.56 C 132.95 181.09 139.06 183.19 140.67 187.33 C 141.13 189.88 141.29 193.16 138.94 194.89 C 136.66 196.75 133.49 195.90 130.80 196.24 C 126.58 193.94 125.89 187.62 129.63 184.56 M 131.07 185.04 C 130.10 186.62 128.21 188.02 128.59 190.07 C 128.72 191.78 130.08 193.03 130.96 194.40 C 133.08 194.45 135.19 194.53 137.30 194.62 C 138.81 192.61 140.34 189.84 138.72 187.43 C 137.41 184.36 133.72 185.13 131.07 185.04 Z" />
</g>
<g id="#cfcfcfff">
<path fill="#cfcfcf" opacity="1.00" d=" M 104.76 42.30 C 103.74 40.05 104.55 36.53 107.63 37.49 C 110.15 37.16 109.31 40.18 109.70 41.69 C 108.06 41.94 106.41 42.17 104.76 42.30 Z" />
<path fill="#cfcfcf" opacity="1.00" d=" M 107.41 46.84 C 108.44 49.08 109.40 51.35 110.48 53.57 C 109.05 54.00 107.62 54.43 106.18 54.84 C 106.54 52.17 106.94 49.50 107.41 46.84 Z" />
<path fill="#cfcfcf" opacity="1.00" d=" M 110.15 48.59 C 110.18 48.66 110.24 48.79 110.26 48.86 C 110.24 48.79 110.18 48.66 110.15 48.59 Z" />
<path fill="#cfcfcf" opacity="1.00" d=" M 110.89 50.51 C 110.91 50.55 110.95 50.64 110.96 50.68 C 110.95 50.64 110.91 50.55 110.89 50.51 Z" />
<path fill="#cfcfcf" opacity="1.00" d=" M 103.44 57.91 C 106.21 55.65 110.20 55.36 113.57 56.23 C 110.40 57.70 106.85 57.71 103.44 57.91 Z" />
<path fill="#cfcfcf" opacity="1.00" d=" M 98.92 60.83 C 102.44 59.42 106.27 58.94 110.03 58.62 C 115.67 58.63 121.43 58.23 126.85 60.12 C 133.57 62.15 138.38 68.35 139.05 75.29 C 139.78 75.62 140.32 76.10 140.68 76.72 C 138.01 77.03 135.56 75.48 132.92 75.42 C 127.27 75.21 121.81 77.01 116.21 77.49 C 105.42 78.63 94.81 81.05 83.99 81.86 C 84.76 78.00 85.23 73.82 87.45 70.48 C 90.82 66.80 94.47 63.19 98.92 60.83 Z" />
<path fill="#cfcfcf" opacity="1.00" d=" M 140.39 71.39 C 140.40 71.44 140.42 71.53 140.43 71.57 C 140.42 71.53 140.40 71.44 140.39 71.39 Z" />
<path fill="#cfcfcf" opacity="1.00" d=" M 120.88 78.39 C 125.39 77.81 129.87 76.80 134.44 76.90 C 139.51 79.07 145.53 80.33 148.72 85.29 C 150.89 91.94 152.10 100.01 148.05 106.20 C 145.81 108.37 143.42 111.11 140.04 111.10 C 126.94 112.80 113.82 114.33 100.76 116.35 C 94.45 116.93 88.06 118.66 81.73 117.45 C 72.88 112.37 70.05 99.42 76.04 91.12 C 79.14 86.97 83.71 83.50 88.96 82.87 C 99.60 81.34 110.22 79.77 120.88 78.39 M 122.38 81.37 C 115.64 82.53 108.82 83.08 102.07 84.15 C 95.74 85.09 89.03 85.10 83.25 88.16 C 80.13 90.19 76.52 92.49 75.78 96.45 C 75.22 101.39 75.18 107.16 78.75 111.07 C 81.09 113.62 84.46 115.44 88.01 114.96 C 103.75 112.81 119.51 110.87 135.23 108.60 C 138.96 108.49 143.14 107.65 145.31 104.27 C 148.01 99.53 149.56 93.41 146.65 88.39 C 145.51 84.33 141.35 82.71 137.79 81.35 C 132.68 80.79 127.49 81.00 122.38 81.37 Z" />
<path fill="#cfcfcf" opacity="1.00" d=" M 162.93 78.12 C 164.93 79.38 166.41 81.23 167.66 83.20 C 165.94 83.82 164.18 84.36 162.41 84.82 C 162.31 82.58 162.48 80.33 162.93 78.12 Z" />
<path fill="#cfcfcf" opacity="1.00" d=" M 163.09 86.76 C 165.21 85.71 167.36 84.51 169.79 84.52 L 169.38 83.44 C 170.59 83.57 173.01 83.85 174.22 83.98 C 173.66 84.28 172.55 84.87 171.99 85.16 C 169.78 86.26 167.48 87.17 165.14 87.98 C 164.63 87.68 163.61 87.07 163.09 86.76 Z" />
<path fill="#cfcfcf" opacity="1.00" d=" M 171.99 85.16 L 172.24 86.66 C 173.62 86.58 175.00 86.53 176.38 86.50 C 176.62 89.54 176.80 92.68 175.90 95.64 C 174.17 96.25 172.30 96.23 170.50 96.44 C 169.17 92.59 169.50 88.44 171.99 85.16 Z" />
<path fill="#cfcfcf" opacity="1.00" d=" M 165.13 89.76 C 166.12 89.30 167.11 88.84 168.11 88.37 C 168.17 90.55 168.22 92.73 168.21 94.91 C 167.11 93.24 166.10 91.51 165.13 89.76 Z" />
<path fill="#cfcfcf" opacity="1.00" d=" M 156.54 92.09 C 156.51 89.12 160.00 88.49 162.26 88.02 C 164.02 91.29 165.98 94.51 167.07 98.09 C 165.47 98.77 163.83 99.40 162.09 99.61 C 160.35 97.03 157.72 95.02 156.54 92.09 Z" />
<path fill="#cfcfcf" opacity="1.00" d=" M 181.86 90.26 C 184.68 89.55 187.87 90.68 188.15 93.94 C 187.09 96.87 184.65 98.99 182.84 101.45 C 181.00 100.69 177.62 100.67 177.80 97.94 C 178.99 95.29 180.60 92.87 181.86 90.26 Z" />
<path fill="#cfcfcf" opacity="1.00" d=" M 59.22 90.08 C 60.25 92.44 61.15 94.86 61.90 97.33 C 60.13 97.83 58.35 98.27 56.52 98.40 C 57.24 95.57 58.12 92.79 59.22 90.08 Z" />
<path fill="#cfcfcf" opacity="1.00" d=" M 163.54 102.09 C 165.32 100.72 167.04 99.21 169.04 98.17 C 171.19 97.89 173.37 98.06 175.54 98.06 C 175.13 100.54 177.49 101.40 179.17 102.51 C 173.97 102.81 168.67 103.18 163.54 102.09 Z" />
<path fill="#cfcfcf" opacity="1.00" d=" M 51.62 101.99 C 55.17 100.39 59.14 98.87 63.08 99.74 C 60.28 103.00 55.42 101.91 51.62 101.99 Z" />
<path fill="#cfcfcf" opacity="1.00" d=" M 160.37 102.49 C 164.59 104.75 169.40 104.46 174.02 104.23 C 176.72 104.35 179.43 104.37 182.09 103.80 C 181.48 107.21 180.70 110.78 178.64 113.64 C 177.71 115.27 175.66 115.10 174.07 115.24 C 170.49 115.21 166.64 115.20 163.45 113.36 C 161.51 110.11 160.62 106.26 160.37 102.49 Z" />
<path fill="#cfcfcf" opacity="1.00" d=" M 56.75 103.35 C 58.68 102.86 60.62 102.75 62.59 103.02 C 62.46 106.41 62.34 109.80 62.24 113.18 C 58.26 111.68 58.46 106.62 56.75 103.35 Z" />
<path fill="#cfcfcf" opacity="1.00" d=" M 46.57 109.42 C 47.98 109.20 49.39 108.97 50.80 108.75 C 51.77 110.36 53.38 111.12 55.26 110.45 C 54.01 114.08 53.64 118.22 51.35 121.40 C 49.34 121.88 47.25 121.67 45.20 121.70 C 45.12 117.56 45.97 113.49 46.57 109.42 Z" />
<path fill="#cfcfcf" opacity="1.00" d=" M 53.25 109.51 C 53.53 109.76 53.53 109.76 53.25 109.51 Z" />
<path fill="#cfcfcf" opacity="1.00" d=" M 136.02 112.81 C 137.80 112.66 139.58 112.56 141.37 112.47 C 141.68 117.62 141.62 122.79 141.82 127.94 C 142.47 132.96 142.70 138.02 142.40 143.07 C 132.14 144.26 121.80 144.84 111.57 146.36 C 103.68 146.30 95.93 148.17 88.05 148.22 C 86.87 138.64 87.14 128.98 86.15 119.36 C 89.77 118.88 93.39 118.41 97.03 118.14 C 109.96 115.89 123.08 114.97 136.02 112.81 M 109.18 121.49 C 102.90 122.31 96.25 122.35 90.74 125.92 C 88.52 130.38 88.05 135.28 88.79 140.17 C 90.19 142.32 92.14 144.67 94.98 144.49 C 108.14 143.73 121.23 142.14 134.37 141.34 C 135.63 140.50 136.89 139.68 138.17 138.87 C 140.53 134.37 140.57 129.15 139.95 124.23 C 139.12 120.58 135.05 119.53 131.82 119.22 C 124.20 118.88 116.71 120.64 109.18 121.49 Z" />
<path fill="#cfcfcf" opacity="1.00" d=" M 29.36 122.81 C 28.39 121.31 27.27 116.83 29.40 116.61 C 29.57 118.68 29.78 120.74 29.88 122.82 L 29.36 122.81 Z" />
<path fill="#cfcfcf" opacity="1.00" d=" M 31.13 117.73 C 33.11 117.01 34.91 115.31 37.13 115.50 C 39.77 117.42 40.38 120.87 41.33 123.79 C 39.56 124.34 37.45 125.88 35.74 124.33 C 33.53 122.68 30.47 120.98 31.13 117.73 Z" />
<path fill="#cfcfcf" opacity="1.00" d=" M 24.82 122.59 C 24.31 120.50 28.02 121.45 28.41 122.85 C 27.20 122.98 26.01 122.90 24.82 122.59 Z" />
<path fill="#cfcfcf" opacity="1.00" d=" M 29.88 122.82 C 31.01 122.91 33.02 123.22 32.64 124.83 C 31.93 124.60 30.50 124.16 29.78 123.93 C 29.81 123.65 29.86 123.10 29.88 122.82 Z" />
<path fill="#cfcfcf" opacity="1.00" d=" M 44.04 123.45 C 46.29 123.35 48.54 123.17 50.79 123.15 C 51.01 124.56 49.06 125.16 48.22 126.04 C 44.19 128.38 40.89 132.00 36.31 133.29 C 38.12 131.43 38.89 129.03 39.56 126.61 C 40.99 125.47 42.58 124.55 44.04 123.45 Z" />
<path fill="#cfcfcf" opacity="1.00" d=" M 25.14 124.17 C 29.29 125.30 33.17 127.25 37.22 128.69 C 36.45 130.51 35.21 132.06 34.00 133.59 C 30.29 133.50 26.62 132.81 23.15 131.48 C 23.54 129.00 23.64 126.30 25.14 124.17 Z" />
<path fill="#cfcfcf" opacity="1.00" d=" M 39.08 134.13 C 44.12 130.40 49.37 126.97 54.56 123.45 C 54.93 127.72 55.25 132.05 54.54 136.30 C 50.58 138.73 46.63 141.63 41.95 142.39 C 38.43 141.01 35.08 139.15 32.07 136.85 C 34.38 135.90 36.90 135.38 39.08 134.13 Z" />
<path fill="#cfcfcf" opacity="1.00" d=" M 128.72 146.11 C 133.52 145.24 138.36 144.60 143.25 144.64 C 146.30 146.95 149.41 149.20 152.71 151.14 C 151.59 153.27 149.08 153.05 147.03 153.09 C 124.91 152.63 102.86 155.31 80.99 158.37 C 83.34 155.48 85.79 152.69 88.17 149.82 C 101.69 148.63 115.23 147.66 128.72 146.11 Z" />
<path fill="#cfcfcf" opacity="1.00" d=" M 109.85 156.36 C 123.61 155.31 137.41 154.02 151.24 154.73 C 149.78 156.01 148.29 157.26 146.81 158.52 C 145.68 162.09 145.16 165.87 145.41 169.61 C 146.10 171.21 147.01 172.69 147.81 174.24 C 149.94 176.07 152.25 177.71 154.84 178.83 C 155.38 195.67 152.03 212.36 151.65 229.17 C 137.47 229.03 123.37 231.17 109.21 231.72 C 103.01 232.32 96.81 232.90 90.63 233.74 C 87.49 218.32 86.07 202.61 83.13 187.15 C 85.90 185.69 88.17 183.55 90.37 181.38 C 92.93 176.87 92.26 171.38 91.51 166.48 C 91.15 162.62 86.94 161.63 84.30 159.67 C 92.70 157.78 101.28 156.92 109.85 156.36 M 92.65 169.79 C 93.58 177.17 94.32 184.57 95.14 191.95 C 95.81 202.57 97.71 213.05 98.29 223.68 C 113.09 222.78 127.78 220.54 142.55 219.25 C 142.37 217.79 142.18 216.34 141.92 214.89 C 141.44 211.03 142.68 207.26 142.60 203.40 L 142.66 203.52 C 142.48 199.35 143.44 195.25 143.35 191.08 C 143.26 182.32 144.39 173.61 144.29 164.84 C 139.86 164.59 135.41 164.59 130.97 164.73 C 118.24 166.50 104.97 165.70 92.65 169.79 Z" />
<path fill="#cfcfcf" opacity="1.00" d=" M 147.39 169.24 C 146.93 164.76 147.00 159.60 150.84 156.54 C 146.68 163.69 154.82 173.77 162.75 171.79 C 164.37 171.05 165.82 169.98 167.35 169.07 C 167.36 170.04 167.38 171.98 167.39 172.95 C 166.11 176.97 161.62 177.98 157.88 177.33 C 153.29 176.70 148.67 173.94 147.39 169.24 Z" />
<path fill="#cfcfcf" opacity="1.00" d=" M 83.69 161.06 C 83.80 160.46 84.00 159.27 84.11 158.67 C 83.38 162.77 88.87 162.75 89.65 166.38 C 91.29 171.98 91.35 179.35 86.33 183.35 C 83.64 186.20 79.47 185.44 75.97 185.25 C 73.80 184.03 72.96 181.48 71.78 179.43 C 76.47 180.45 83.28 180.82 85.50 175.52 C 87.08 170.80 87.10 165.01 83.69 161.06 Z" />
<path fill="#cfcfcf" opacity="1.00" d=" M 115.90 167.79 C 124.76 166.91 133.62 165.74 142.55 166.38 C 142.58 170.64 142.47 174.89 142.21 179.14 C 141.14 186.41 142.10 193.79 141.24 201.07 C 140.64 206.57 141.14 212.10 140.64 217.61 C 129.60 219.08 118.50 220.14 107.43 221.43 C 104.85 221.75 102.25 221.79 99.66 221.69 C 98.15 204.63 96.21 187.59 94.29 170.56 C 101.41 169.06 108.64 168.17 115.90 167.79 M 129.63 184.56 C 125.89 187.62 126.58 193.94 130.80 196.24 C 133.49 195.90 136.66 196.75 138.94 194.89 C 141.29 193.16 141.13 189.88 140.67 187.33 C 139.06 183.19 132.95 181.09 129.63 184.56 Z" />
<path fill="#cfcfcf" opacity="1.00" d=" M 131.07 185.04 C 133.72 185.13 137.41 184.36 138.72 187.43 C 140.34 189.84 138.81 192.61 137.30 194.62 C 135.19 194.53 133.08 194.45 130.96 194.40 C 130.08 193.03 128.72 191.78 128.59 190.07 C 128.21 188.02 130.10 186.62 131.07 185.04 Z" />
<path fill="#cfcfcf" opacity="1.00" d=" M 152.69 230.89 C 153.54 224.55 153.92 218.15 154.63 211.79 C 155.32 218.23 153.89 224.65 153.98 231.11 L 152.69 230.89 Z" />
<path fill="#cfcfcf" opacity="1.00" d=" M 63.33 277.35 C 67.46 274.76 72.43 274.21 77.05 272.93 C 77.14 274.48 77.22 276.04 77.30 277.60 C 83.44 281.59 91.33 281.97 98.27 280.10 C 98.34 279.50 98.49 278.32 98.57 277.72 C 99.14 277.47 100.29 276.95 100.87 276.69 C 105.27 279.04 109.40 281.96 112.58 285.85 C 110.73 288.89 107.86 291.06 104.75 292.68 C 96.60 297.77 86.35 297.54 77.22 295.79 C 71.46 294.57 65.47 294.18 59.93 292.09 C 57.38 290.76 55.20 288.83 52.92 287.11 C 55.58 283.08 59.46 280.13 63.33 277.35 Z" />
<path fill="#cfcfcf" opacity="1.00" d=" M 156.53 273.37 C 162.73 274.38 168.54 276.93 173.97 280.01 C 176.46 281.52 178.15 283.95 180.00 286.12 C 174.83 290.91 167.97 292.87 161.33 294.65 C 150.44 296.72 139.35 297.56 128.28 296.76 C 122.29 295.58 116.65 293.17 110.99 290.95 C 112.88 287.87 114.61 284.64 117.15 282.03 C 121.63 278.36 126.50 274.87 132.37 273.93 C 132.48 276.32 132.54 278.71 132.58 281.11 C 137.94 281.59 143.43 282.78 148.77 281.48 C 152.33 280.99 154.94 278.27 157.52 276.02 C 157.27 275.36 156.78 274.03 156.53 273.37 Z" />
</g>
<g id="#8d8d8dff">
<path fill="#8d8d8d" opacity="1.00" d=" M 151.07 86.92 C 154.34 84.02 157.52 80.96 161.13 78.50 C 161.04 81.28 160.74 84.04 160.72 86.82 C 158.66 86.99 156.85 87.85 155.47 89.39 C 155.38 90.87 155.23 92.35 155.28 93.83 C 156.94 96.49 159.56 98.42 161.13 101.16 C 157.89 101.12 154.88 99.89 151.84 98.93 C 151.87 94.91 151.97 90.86 151.07 86.92 Z" />
<path fill="#8d8d8d" opacity="1.00" d=" M 61.00 89.24 C 64.95 90.73 68.81 92.46 72.76 93.94 C 70.98 98.71 71.38 103.81 71.54 108.79 C 68.90 110.33 66.35 112.00 63.82 113.71 C 63.31 109.81 63.92 105.90 63.93 102.00 C 63.93 97.57 62.02 93.48 61.00 89.24 Z" />
<path fill="#8d8d8d" opacity="1.00" d=" M 161.77 114.48 C 166.71 116.86 172.23 116.84 177.58 116.55 C 177.07 121.02 174.65 125.77 176.54 130.16 C 172.78 130.98 168.81 131.22 165.05 130.32 C 163.44 129.42 162.01 128.24 160.52 127.15 C 160.38 126.67 160.10 125.71 159.96 125.23 C 160.77 121.69 162.32 118.16 161.77 114.48 Z" />
<path fill="#8d8d8d" opacity="1.00" d=" M 177.44 128.74 C 176.02 128.57 175.96 128.00 177.24 127.05 C 177.29 127.47 177.39 128.32 177.44 128.74 Z" />
<path fill="#8d8d8d" opacity="1.00" d=" M 159.04 128.20 C 161.35 129.46 163.42 131.21 165.91 132.10 C 168.87 132.73 171.93 132.29 174.93 132.30 C 174.29 136.69 172.84 140.88 171.94 145.21 C 166.70 145.14 160.75 144.48 157.29 140.02 C 157.24 136.01 158.79 132.19 159.04 128.20 Z" />
<path fill="#8d8d8d" opacity="1.00" d=" M 52.40 139.35 C 53.87 138.42 55.05 137.05 56.62 136.31 C 58.59 138.97 60.50 141.68 62.88 144.00 C 62.35 146.30 62.15 148.78 60.87 150.81 C 58.38 153.70 54.44 154.51 50.87 155.19 C 48.32 151.47 44.68 148.28 43.22 143.95 C 46.09 142.05 49.61 141.39 52.40 139.35 Z" />
<path fill="#8d8d8d" opacity="1.00" d=" M 153.50 153.06 C 154.19 149.02 155.35 145.07 156.88 141.26 C 160.17 146.18 166.41 146.79 171.81 146.35 C 171.07 150.07 170.11 153.74 169.02 157.37 C 163.51 157.61 157.54 157.35 153.50 153.06 Z" />
<path fill="#8d8d8d" opacity="1.00" d=" M 64.14 145.36 C 67.05 148.26 69.73 151.39 72.76 154.19 C 72.35 156.35 72.30 158.97 70.37 160.41 C 66.89 163.02 62.46 163.67 58.29 164.39 C 56.14 161.88 54.00 159.36 51.93 156.79 C 55.36 156.10 58.53 154.44 61.24 152.25 C 63.38 150.65 63.40 147.70 64.14 145.36 Z" />
<path fill="#8d8d8d" opacity="1.00" d=" M 152.12 154.41 C 154.23 155.75 156.17 157.43 158.53 158.33 C 161.85 159.33 165.37 158.89 168.76 158.51 C 167.36 162.98 166.82 168.53 162.11 170.89 C 158.46 170.27 154.82 168.69 152.90 165.34 C 150.25 162.20 151.82 158.02 152.12 154.41 Z" />
<path fill="#8d8d8d" opacity="1.00" d=" M 74.16 155.42 C 75.64 156.87 77.32 158.19 78.45 159.96 C 78.76 163.51 77.90 167.73 74.49 169.57 C 72.01 170.70 69.26 171.10 66.74 172.15 C 64.16 170.17 61.65 168.09 59.44 165.70 C 65.60 165.15 72.95 162.28 74.16 155.42 Z" />
<path fill="#8d8d8d" opacity="1.00" d=" M 79.91 160.83 C 81.70 162.23 83.48 163.66 85.25 165.08 C 85.34 168.54 84.90 171.96 84.43 175.38 C 81.96 178.59 77.75 179.20 73.98 178.47 C 71.72 176.87 69.82 174.72 67.13 173.79 C 70.59 171.88 75.11 171.84 77.74 168.56 C 79.61 166.43 79.61 163.48 79.91 160.83 Z" />
<path fill="#8d8d8d" opacity="1.00" d=" M 127.53 231.74 C 134.41 231.61 141.24 230.61 148.14 230.64 C 148.65 233.31 149.22 235.96 149.86 238.61 C 142.91 235.23 135.71 239.14 128.97 240.91 C 129.19 239.42 128.71 238.31 127.52 237.59 L 128.78 237.63 C 128.31 235.68 127.87 233.72 127.53 231.74 Z" />
<path fill="#8d8d8d" opacity="1.00" d=" M 110.71 234.24 C 110.74 234.13 110.81 233.91 110.85 233.80 L 110.71 234.24 Z" />
<path fill="#8d8d8d" opacity="1.00" d=" M 90.36 235.35 C 96.72 234.58 103.08 233.56 109.50 233.38 C 108.63 236.75 107.82 240.14 106.77 243.46 C 102.15 238.74 95.09 239.91 89.17 240.37 C 89.55 238.69 89.95 237.02 90.36 235.35 Z" />
<path fill="#8d8d8d" opacity="1.00" d=" M 109.52 237.28 L 110.40 237.11 C 110.19 237.59 109.78 238.55 109.57 239.03 L 109.10 238.26 L 109.52 237.28 Z" />
<path fill="#8d8d8d" opacity="1.00" d=" M 130.34 242.61 C 136.42 239.48 143.86 237.25 150.38 240.46 C 151.30 244.20 151.70 248.04 152.42 251.81 C 148.97 251.53 145.48 250.55 142.02 251.27 C 138.57 251.74 135.57 253.64 132.68 255.44 C 131.47 252.02 130.98 248.42 130.10 244.92 C 130.16 244.34 130.28 243.18 130.34 242.61 Z" />
<path fill="#8d8d8d" opacity="1.00" d=" M 108.78 240.08 L 109.65 239.82 C 109.49 240.33 109.18 241.34 109.02 241.84 L 108.45 241.11 L 108.78 240.08 Z" />
<path fill="#8d8d8d" opacity="1.00" d=" M 89.15 241.77 C 93.08 241.24 97.10 241.24 101.04 241.63 C 103.06 242.33 104.74 243.71 106.52 244.84 C 105.82 248.53 104.92 252.18 104.08 255.85 C 100.44 254.66 97.16 252.48 93.38 251.72 C 90.73 251.38 88.05 251.59 85.40 251.54 C 87.02 248.43 86.95 244.51 89.15 241.77 Z" />
<path fill="#8d8d8d" opacity="1.00" d=" M 84.86 255.07 C 85.32 253.15 87.40 253.20 88.95 253.05 C 94.28 252.43 99.17 255.17 103.63 257.73 C 102.75 261.24 101.96 264.78 100.98 268.27 C 98.15 266.93 95.34 265.12 92.09 265.10 C 88.58 265.04 85.07 265.32 81.57 265.39 C 82.72 261.96 83.65 258.47 84.86 255.07 Z" />
<path fill="#8d8d8d" opacity="1.00" d=" M 132.43 256.90 C 136.04 254.90 139.78 252.85 143.94 252.32 C 146.80 252.26 149.58 253.07 152.38 253.56 C 153.25 257.12 153.73 260.75 154.15 264.39 C 146.82 262.28 139.94 266.44 132.94 267.86 C 132.91 264.20 132.65 260.55 132.43 256.90 Z" />
<path fill="#8d8d8d" opacity="1.00" d=" M 81.06 266.40 C 87.65 266.08 94.59 265.59 100.45 269.17 C 99.34 272.52 98.11 275.85 97.41 279.33 C 91.03 279.61 83.51 280.70 78.33 276.10 C 79.15 272.84 80.07 269.61 81.06 266.40 Z" />
<path fill="#8d8d8d" opacity="1.00" d=" M 143.87 265.74 C 147.64 265.41 151.44 265.47 155.22 265.72 C 155.04 269.16 154.97 272.60 155.11 276.05 C 149.95 282.24 141.04 280.77 133.96 280.11 C 133.75 276.60 133.58 273.08 133.76 269.57 C 137.08 268.59 140.30 267.31 143.48 265.96 L 143.26 267.69 C 143.42 267.20 143.72 266.23 143.87 265.74 Z" />
<path fill="#8d8d8d" opacity="1.00" d=" M 131.57 269.40 C 132.95 269.81 133.15 270.69 132.17 272.04 L 131.55 272.02 C 131.55 271.37 131.57 270.05 131.57 269.40 Z" />
</g>
</svg>
