<?xml version="1.0" encoding="UTF-8" ?>
<!DOCTYPE svg PUBLIC "-//W3C//DTD SVG 1.1//EN" "http://www.w3.org/Graphics/SVG/1.1/DTD/svg11.dtd">
<svg width="512pt" height="512pt" viewBox="0 0 512 512" version="1.1" xmlns="http://www.w3.org/2000/svg">
<g id="#26758eff">
<path fill="#26758e" opacity="1.00" d=" M 248.31 0.00 L 263.63 0.00 C 301.41 1.35 338.94 10.93 372.38 28.65 C 423.16 55.21 464.23 99.80 486.41 152.65 C 504.95 196.28 510.35 245.26 502.35 291.95 C 492.63 349.67 461.56 403.46 416.51 440.81 C 416.30 462.53 416.53 484.26 416.39 505.98 C 416.55 508.61 414.96 510.94 412.60 512.00 L 411.41 512.00 C 407.95 511.53 405.08 509.43 402.06 507.87 C 385.09 498.70 368.20 489.37 351.17 480.31 C 300.23 501.57 242.14 504.82 189.00 490.05 C 138.24 476.10 92.31 445.48 59.74 404.15 C 36.98 375.44 20.66 341.65 12.44 305.94 C 1.98 260.70 4.35 212.53 19.47 168.62 C 36.13 119.78 68.50 76.52 110.51 46.59 C 150.47 17.79 199.12 1.61 248.31 0.00 M 286.75 103.80 C 265.72 112.03 246.83 126.56 235.20 146.11 C 222.92 166.27 217.98 190.71 221.26 214.07 C 223.95 234.65 233.16 253.63 236.99 273.95 C 238.88 283.86 239.51 294.12 237.80 304.10 C 233.27 332.00 210.68 355.93 183.04 361.90 C 166.23 365.46 148.02 363.42 132.93 354.98 C 131.32 353.46 129.13 355.66 130.74 357.15 C 148.01 379.75 172.13 397.03 199.09 406.13 C 225.91 415.32 255.43 416.40 282.87 409.26 C 309.18 402.40 333.79 388.37 352.23 368.27 C 366.98 352.66 376.69 332.41 379.58 311.12 C 383.82 281.10 376.01 250.19 360.76 224.25 C 346.57 199.26 324.50 179.18 313.75 152.17 C 306.46 134.40 312.60 112.52 327.66 100.75 C 328.70 100.22 329.11 99.38 328.91 98.25 C 314.70 97.20 300.12 98.68 286.75 103.80 Z" />
</g>
<g id="#ffffffff">
<path fill="#ffffff" opacity="1.00" d=" M 286.75 103.80 C 300.12 98.68 314.70 97.20 328.91 98.25 C 329.11 99.38 328.70 100.22 327.66 100.75 C 312.60 112.52 306.46 134.40 313.75 152.17 C 324.50 179.18 346.57 199.26 360.76 224.25 C 376.01 250.19 383.82 281.10 379.58 311.12 C 376.69 332.41 366.98 352.66 352.23 368.27 C 333.79 388.37 309.18 402.40 282.87 409.26 C 255.43 416.40 225.91 415.32 199.09 406.13 C 172.13 397.03 148.01 379.75 130.74 357.15 C 129.13 355.66 131.32 353.46 132.93 354.98 C 148.02 363.42 166.23 365.46 183.04 361.90 C 210.68 355.93 233.27 332.00 237.80 304.10 C 239.51 294.12 238.88 283.86 236.99 273.95 C 233.16 253.63 223.95 234.65 221.26 214.07 C 217.98 190.71 222.92 166.27 235.20 146.11 C 246.83 126.56 265.72 112.03 286.75 103.80 Z" />
</g>
</svg>
